<svg width="54" height="53" viewBox="0 0 54 53" fill="none" xmlns="http://www.w3.org/2000/svg">
<path d="M47.4389 0.554688H6.56096C5.08257 0.554688 3.66474 1.14197 2.61936 2.18735C1.57398 3.23273 0.986694 4.65057 0.986694 6.12895L0.986694 47.0069C0.986694 48.4853 1.57398 49.9031 2.61936 50.9485C3.66474 51.9939 5.08257 52.5812 6.56096 52.5812H22.4999V34.8933H15.1837V26.5679H22.4999V20.2226C22.4999 13.005 26.7967 9.01828 33.3778 9.01828C36.5296 9.01828 39.8254 9.58036 39.8254 9.58036V16.6643H36.194C32.616 16.6643 31.5 18.8847 31.5 21.1621V26.5679H39.4875L38.21 34.8933H31.5V52.5812H47.4389C48.9173 52.5812 50.3351 51.9939 51.3805 50.9485C52.4259 49.9031 53.0132 48.4853 53.0132 47.0069V6.12895C53.0132 4.65057 52.4259 3.23273 51.3805 2.18735C50.3351 1.14197 48.9173 0.554688 47.4389 0.554688Z" fill="#FBFBFB"/>
</svg>
